<?xml version="1.0" encoding="utf-8"?>
<!-- Generator: Adobe Illustrator 16.0.2, SVG Export Plug-In . SVG Version: 6.00 Build 0)  -->
<!DOCTYPE svg PUBLIC "-//W3C//DTD SVG 1.1//EN" "http://www.w3.org/Graphics/SVG/1.1/DTD/svg11.dtd">
<svg version="1.1" id="Layer_1" xmlns="http://www.w3.org/2000/svg" xmlns:xlink="http://www.w3.org/1999/xlink" x="0px" y="0px"
	 width="200.661px" height="200.794px" viewBox="0 0 200.661 200.794" enable-background="new 0 0 200.661 200.794"
	 xml:space="preserve">
<g>
	<g>
		<g>
			<g id="XMLID_1_">
				<g>
					<polygon fill="#FFFFFF" points="131.146,101.47 124.406,102.58 119.596,98.48 121.586,91.57 129.056,90.41 133.286,94.77 					
						"/>
					<polygon fill="#FFFFFF" points="127.786,113.43 126.296,120.31 119.696,122.06 114.517,118.44 115.836,111.38 123.156,109.5 
											"/>
					<polygon fill="#FFFFFF" points="109.386,77.97 114.056,72.5 121.336,74.53 123.386,80.25 118.666,85.47 112.076,83.69 					"/>
					<polygon fill="#FFFFFF" points="108.376,121.28 110.437,126.99 105.736,132.22 99.136,130.46 96.426,124.75 101.086,119.27 
											"/>
					<polygon fill="#FFFFFF" points="89.606,72.67 94.926,67.83 101.896,70.76 103.206,76.69 97.876,81.28 91.556,78.68 					"/>
					<path fill="#FFFFFF" d="M112.356,99.56c0,6.7-5.431,12.12-12.13,12.12c-6.69,0-12.12-5.42-12.12-12.12
						c0-6.7,5.43-12.12,12.12-12.12C106.926,87.44,112.356,92.86,112.356,99.56z"/>
					<path fill="#FFFFFF" d="M87.686,92.18l11.99-7.28l13.66,7.28v14.339l-13.66,7.841l-12.27-7.841V92.18H87.686z M88.106,99.56
						c0,6.7,5.43,12.12,12.12,12.12c6.7,0,12.13-5.42,12.13-12.12c0-6.7-5.431-12.12-12.13-12.12
						C93.536,87.44,88.106,92.86,88.106,99.56z"/>
					<path fill="#FFFFFF" d="M99.676,84.9l-11.99,7.28h-0.28v14.339l12.27,7.841l13.66-7.841V92.18L99.676,84.9z M100.366,115.83
						c-9.21,0-16.66-7.46-16.66-16.66s7.45-16.66,16.66-16.66c9.2,0,16.66,7.46,16.66,16.66S109.566,115.83,100.366,115.83z"/>
					<polygon fill="#FFFFFF" points="85.186,88.37 78.786,90.78 73.266,87.71 73.866,80.55 80.956,77.94 85.966,81.38 					"/>
					<polygon fill="#FFFFFF" points="80.816,114.57 88.306,115.55 91.156,120.92 87.226,126.75 80.436,125.92 76.966,120.65 					
						"/>
					<polygon fill="#FFFFFF" points="67.476,103.94 70.556,97.45 78.116,97.5 81.586,102.49 78.396,108.76 71.556,108.76 					"/>
					<path fill="#FFFFFF" d="M110.437,126.99l-2.061-5.71l-7.29-2.011l-4.66,5.48l2.71,5.71l6.6,1.76L110.437,126.99z
						 M124.406,102.58l6.74-1.11l2.14-6.7l-4.23-4.36l-7.47,1.16l-1.99,6.91L124.406,102.58z M97.876,81.28l5.33-4.59l-1.31-5.93
						l-6.97-2.93l-5.32,4.84l1.95,6.01L97.876,81.28z M85.186,88.37l0.78-6.99l-5.01-3.44l-7.09,2.61l-0.6,7.16l5.52,3.07
						L85.186,88.37z M100.366,82.51c-9.21,0-16.66,7.46-16.66,16.66s7.45,16.66,16.66,16.66c9.2,0,16.66-7.46,16.66-16.66
						S109.566,82.51,100.366,82.51z M70.556,97.45l-3.08,6.49l4.08,4.819h6.84l3.19-6.27l-3.47-4.99L70.556,97.45z M109.386,77.97
						l2.69,5.72l6.59,1.78l4.72-5.22l-2.05-5.72l-7.28-2.03L109.386,77.97z M142.506,99.82c0,22.99-18.64,41.64-41.63,41.64
						c-23,0-41.64-18.65-41.64-41.64c0-23,18.64-41.64,41.64-41.64C123.866,58.18,142.506,76.82,142.506,99.82z M88.306,115.55
						l-7.49-0.979l-3.85,6.08l3.47,5.27l6.79,0.83l3.93-5.83L88.306,115.55z M126.296,120.31l1.49-6.88l-4.63-3.93l-7.32,1.88
						l-1.319,7.061l5.18,3.619L126.296,120.31z"/>
					<path fill="#FFFFFF" d="M100.876,58.18c-23,0-41.64,18.64-41.64,41.64c0,22.99,18.64,41.64,41.64,41.64
						c22.99,0,41.63-18.65,41.63-41.64C142.506,76.82,123.866,58.18,100.876,58.18z M100.866,147.89
						c-26.65,0-48.24-21.6-48.24-48.24c0-26.65,21.59-48.25,48.24-48.25c26.65,0,48.24,21.6,48.24,48.25
						C149.106,126.29,127.517,147.89,100.866,147.89z"/>
					<path fill="#FFFFFF" d="M50.506,99.84c0-27.67,22.43-50.09,50.09-50.09c27.67,0,50.1,22.42,50.1,50.09s-22.43,50.09-50.1,50.09
						C72.936,149.93,50.506,127.51,50.506,99.84z M100.866,147.89c26.65,0,48.24-21.6,48.24-48.24c0-26.65-21.59-48.25-48.24-48.25
						c-26.65,0-48.24,21.6-48.24,48.25C52.626,126.29,74.216,147.89,100.866,147.89z"/>
					<path fill="#FFFFFF" d="M50.506,99.84c0,27.67,22.43,50.09,50.09,50.09c27.67,0,50.1-22.42,50.1-50.09s-22.43-50.09-50.1-50.09
						C72.936,49.75,50.506,72.17,50.506,99.84z M100.446,166.62c-37.11,0-67.2-30.09-67.2-67.2c0-37.11,30.09-67.2,67.2-67.2
						c37.12,0,67.21,30.09,67.21,67.2C167.656,136.53,137.566,166.62,100.446,166.62z"/>
					<path fill="#FFFFFF" d="M100.596,189.05c-49.64,0-89.88-40.24-89.88-89.88c0-49.64,40.24-89.88,89.88-89.88
						s89.89,40.24,89.89,89.88C190.486,148.81,150.236,189.05,100.596,189.05z M33.246,99.42c0,37.11,30.09,67.2,67.2,67.2
						c37.12,0,67.21-30.09,67.21-67.2c0-37.11-30.09-67.2-67.21-67.2C63.336,32.22,33.246,62.31,33.246,99.42z"/>
					<path fill="#FFFFFF" d="M10.716,99.17c0,49.64,40.24,89.88,89.88,89.88s89.89-40.24,89.89-89.88
						c0-49.64-40.25-89.88-89.89-89.88S10.716,49.53,10.716,99.17z M66.916,190.79c-1.46-0.28-2.02,0.06-2.64,0.56
						c-0.61,0.511-1.96,1.351-3.02,0.79c-1.06-0.56-2.18-1.399-2.46-2.8c-0.28-1.399,0.05-2.24-1.63-2.52
						c-1.68-0.28-2.35,0-2.97,0.67c-0.61,0.67-1.84,1.229-2.96-0.11c-1.12-1.34-1.74-1.63-1.74-3.979c0-2.351-2.3-2.29-3.14-1.73
						c-0.84,0.56-2.12,1.79-3.58,0.5c-1.46-1.29-1.68-1.79-1.68-2.91s-0.17-3.7-2.35-3.92c-2.19-0.229-2.75,1.62-3.87,0.561
						c-1.12-1.07-1.8-1.681-1.63-3.53c0.18-1.851-0.33-3.7-2.01-3.86c-1.68-0.17-2.35,0.73-3.13,0.891
						c-0.79,0.17-3.31-1.45-3.14-3.471c0.17-2.01,1.01-3.859-0.67-4.31c-1.68-0.45-4.65-0.45-5.1-2.13
						c-0.45-1.681-0.11-2.91,0.4-4.09c0.5-1.171-0.51-2.801-2.36-2.74c-1.85,0.05-5.32-1.351-4.31-3.641
						c1.01-2.3,1.79-2.689,1.34-3.75c-0.44-1.069-1.11-1.46-3.02-1.569c-1.9-0.11-3.14-2.58-3.14-3.59c0-1,1.68-2.181,1.68-2.851
						s-0.67-3.47-2.74-3.25c-2.07,0.22-3.02-2.47-3.02-3.14s0.39-1.84,1.62-2.521c1.23-0.67,0.95-2.46,0.67-2.68
						c-0.28-0.229-0.33-1.24-2.74-1.4c-2.41-0.17-2.41-3.529-2.19-4.369c0.23-0.841,2.58-2.131,2.58-2.75
						c0-0.61,0.62-1.681-0.34-2.851c-0.95-1.18-3.02-1.85-3.08-3.53c-0.05-1.68-0.22-2.63,0.68-3.42
						c0.89-0.779,2.85-1.229,3.08-2.12c0.22-0.899,0.5-2.3,0-2.81c-0.51-0.5-2.97-1.41-3.2-3.25c-0.22-1.84-0.95-2.51,0.12-3.63
						c1.06-1.12,2.91-0.84,3.58-1.91c0.67-1.06,0.56-1.96,0.28-2.8c-0.28-0.84-4.17-0.11-3.89-3.02c0.28-2.92,0.36-3.09,1.76-3.54
						c1.4-0.45,2.33,0.05,2.67-1.01c0.34-1.07,0.82-3.51-0.3-4.35c-1.12-0.84-2.68-0.02-2.79-1.87s0.36-3.48,0.58-3.66
						c0.79-0.67,2.33-0.47,4.46-0.94c1.8-0.39,1.97-3.44,1.13-4.56s-3.24-2.39-3.01-3.67c0.22-1.29,0.51-4.01,1.97-4.63
						c1.45-0.61,3.05-0.62,3.05-0.62s1.58,0,2.33-1.04c1.08-1.49,0.52-2.8,0.52-2.8s-1.09-1-1.93-1.5c-0.84-0.5-0.16-1.51-0.16-1.51
						l2.01-3.15c0,0,0.25-0.3,1.09-0.25c0.84,0.04,2.15,0.21,2.15,0.21s2.1-0.63,1.55-1.89c-0.55-1.26-0.97-2.02-0.97-2.02
						s-0.79-1.34-0.17-2.02c0.63-0.67,2.32-2.47,2.32-2.47s0.58-0.42,1.63,0c1.05,0.42,1.6,0.63,1.6,0.63s0.25,0.25,1.01-0.47
						c0.75-0.71,1.21-1.26,0.92-1.89s-1.09-1.68-1.09-1.68s-0.72-0.84-0.17-1.72c0.55-0.88,2.23-2.43,2.23-2.43s0.29-0.47,1.55,0
						c1.26,0.46,2.48,0.79,2.48,0.79s0.55,0.13,1.01-0.37c0.46-0.51,1.22-0.97,0.92-1.81c-0.29-0.84-0.88-1.97-0.88-1.97
						s-0.46-1.05,0.13-1.77c0.58-0.71,2.45-2.27,2.45-2.27s1.03-0.5,1.79,0c0.75,0.51,1.43,0.93,1.43,0.93s0.25,0.54,1.34-0.04
						c0,0,1.33-0.86,1.05-1.81c-0.28-0.95-0.82-3.02,0.04-3.58c0.86-0.56,2.26-1.91,2.26-1.91s0.95-0.5,2.01,0.28
						c1.07,0.79,1.91,1.23,2.52,1.01c0.62-0.22,1.79-0.78,1.74-2.13c-0.06-1.34-0.67-3.08,0.95-3.97c1.62-0.9,2.3-1.07,3.98,0
						c1.68,1.06,3.52,0.44,3.75-1.8c0.22-2.24-0.17-2.12,1.45-2.85c1.63-0.73,2.41-1.59,3.59-0.4c1.17,1.18,1.96,1.91,3.02,1.18
						c1.07-0.73,1.46-1.29,1.23-2.52c-0.22-1.23,1.52-2.41,2.69-2.57c1.18-0.17,1.91,0.27,2.63,0.67c0.73,0.39,1.29,1.34,2.02,1.34
						s2.02-0.11,2.52-0.89c0.5-0.79-0.06-2.75,1.4-3.25c1.46-0.51,2.35-1.07,3.42-0.51c1.06,0.56,1.51,2.24,2.35,2.52
						c0.84,0.28,1.68,0.06,2.24-0.67s1.12-3.25,1.96-3.25c0.84,0,3.47-0.5,4.09,0c0.61,0.51,2.07,2.91,2.68,2.91
						c0.62,0,1.57-0.39,2.3-1.96c0.73-1.56,1.4-1.62,2.13-1.67c0.73-0.06,2.35-0.51,3.36,0.89c1.01,1.4,1.57,2.47,2.24,2.47
						s1.62-1.35,2.521-2.13c0.89-0.79,1.34-1.35,2.57-1.35c1.239,0,3.14,0.28,3.359,0.9c0.23,0.61-0.16,1.4,0,2.46
						c0.17,1.07,0.45,1.51,1.351,1.74c0.89,0.22,1.51,0.78,2.29,0c0.789-0.78,1.35-1.62,2.13-2.46c0.79-0.85,1.569-1.41,2.75-1.13
						c1.17,0.28,2.8,0.56,2.97,1.52c0.16,0.95-0.68,3.3,0,4.03c0.67,0.73,1.62,1.18,2.35,1.12c0.721-0.06,2.011-2.91,3.69-2.97
						c1.68-0.05,2.41-0.06,3.59,0.73c1.17,0.78-0.34,2.97,0,3.69c0.33,0.73,2.01,2.36,3.47,1.41c1.45-0.96,2.63-2.99,4.37-2.25
						c1.73,0.73,2.63,1.07,2.63,1.74c0,0.67-1.229,2.35-0.949,3.03c0.279,0.67,0.949,1.9,2.289,1.9c1.351,0,2.58-3.14,3.921-2.74
						c1.35,0.39,3.029,1,2.52,2.29c-0.5,1.29-1.51,2.35-0.84,3.08c0.68,0.73,1.85,1.46,3.36,0.73c1.52-0.73,2.64-2.35,4.26-1.18
						c1.62,1.18,2.52,2.08,1.62,3.59c-0.891,1.51-0.891,2.18-0.051,2.97c0.841,0.78,1.96-0.62,3.86-1.01
						c1.91-0.39,2.86,0.95,3.14,1.79c0.28,0.84-0.729,1.57-0.84,2.41c-0.109,0.84-0.069,2.29,0.891,2.74
						c0.96,0.45,2.3,0.79,3.76,0.34c1.45-0.45,5.2-1.12,5.37,2.41c0.17,3.52-1.01,3.69,0.34,4.76c1.34,1.06,4.31-1.8,5.54,0.44
						c1.229,2.24,0.17,2.8,0,3.42s-1.12,2.13-0.28,3.42c0.84,1.28,2.86,0.95,3.87,1c1,0.06,3.24,1.46,2.29,4.43
						c-0.95,2.97-1.06,3.53-0.05,4.37c1,0.84,3.689-0.23,4.64,2.01c0.96,2.24-0.05,2.75-0.609,3.7c-0.561,0.95-1.011,3.02,1.01,3.75
						c2.01,0.73,3.58,0.78,3.8,3.47c0.229,2.69-1.96,3.08-1.9,4.37c0.061,1.29,2.351,2.3,2.351,2.3s2.3,0.78,2.189,3.19
						c-0.12,2.41-0.68,2.57-1.63,3.19c-0.95,0.62-1.51,1.68-1.06,2.97s3.81,1.34,3.81,3.7c0,2.35-1.35,3.24-2.35,3.41
						c-1.01,0.17-2.25,2.52-1.29,3.42c0.95,0.89,4.25,1.1,3.64,4.47c-0.62,3.37-3.14,1.58-4.2,2.75c-1.069,1.18-1.35,2.97-0.56,3.75
						c0.78,0.79,3.41,0.62,3.47,2.41c0.05,1.79-0.279,3.75-3.029,3.92c-2.74,0.17-1.681,2.75-1.341,3.08
						c0.341,0.34,3.36,1.399,3.141,4.42c-0.23,3.03-3.53,1.74-4.48,2.25c-0.96,0.5-1.85,2.85-0.68,4.08
						c1.18,1.24,3.42,1.07,3.2,3.979c-0.23,2.91-1.96,3.641-4.15,3.141c-2.18-0.51-1.729,1.34-0.97,2.24
						c0.75,0.89,3.55,1.56,3.16,3.579c-0.4,2.021-4.261,1.681-5.21,2.91c-0.95,1.23,1.17,3.92,1.229,4.71
						c0.061,0.78-0.78,3.84-2.689,3.54c-1.9-0.3-3.58-0.02-3.86,0.88c-0.28,0.9,1.62,3.7,1.229,4.761
						c-0.39,1.06-0.449,3.14-2.409,3.08c-1.96-0.061-4.091,0-4.091,0s-1.56,0.949-1.06,2.52s1.18,3.08,0.56,3.81
						c-0.619,0.73-1.29,1.9-2.239,1.9c-0.95,0-4.65-0.8-4.7-0.26c-0.061,0.54-0.9,0.71-0.51,2.84c0.39,2.13,0.449,4.25-1.73,4.7
						c-2.189,0.45-3.81-1.01-5.21,0s-1.07,1.79-0.95,2.3c0.11,0.5,1.061,1.12,0.61,2.18c-0.45,1.07-1.23,2.19-2.85,2.41
						c-1.631,0.22-1.29-1.01-3.141-1.06c-1.85-0.061-2.41,0.5-2.58,1.09c-0.16,0.59,0.51,2.27-0.16,3.33
						c-0.68,1.06-1.68,2.859-3.979,2.18c-2.3-0.67-2.351-1.229-3.25-1.229c-0.89,0-1.061-0.221-1.96,0.729
						c-0.891,0.95,0.06,2.41-1.34,3.36c-1.4,0.95-2.75,0.109-5.15,0c-2.41-0.11-2.92,0.39-3.25,1.569
						c-0.34,1.181-0.51,2.801-2.02,3.41c-1.511,0.62-3.36-1.34-4.48-1.39c-1.12-0.061-2.689,0.11-3.08,2.57
						c-0.39,2.47-3.53,2.739-4.479,2.02c-0.95-0.729-2.29-2.92-3.471-2.86c-1.18,0.061-2.35,2.131-3.14,3.7
						c-0.78,1.57-3.58,1.061-4.25,0.391s-1.68-2.521-2.35-2.521c-0.681,0-2.19,0-3.25,1.51c-1.07,1.511-1.74,2.301-2.521,2.351
						c-0.79,0.06-2.36,0.51-3.53-1.28c-1.18-1.8-1.35-2.08-2.35-1.96c-1.01,0.11-1.68,0.28-2.36,1.73c-0.67,1.46-3.97,1.46-4.7,0.5
						c-0.73-0.95-1.12-2.351-1.79-2.79c-0.67-0.45-1.35-1.011-2.69,0.27c-1.34,1.29-1.62,1.46-2.8,1.74
						c-1.18,0.28-2.52-0.73-2.97-1.79c-0.45-1.07-0.78-3.03-2.18-3.03c-1.4,0-2.58,2.69-3.87,2.64c-1.28-0.06-3.58-0.17-3.8-1.909
						C68.646,192.59,68.366,191.08,66.916,190.79z"/>
				</g>
				<g>
					<line fill="none" stroke="#000000" stroke-miterlimit="10" x1="113.336" y1="92.18" x2="113.336" y2="106.52"/>
					<line fill="none" stroke="#000000" stroke-miterlimit="10" x1="115.836" y1="111.38" x2="123.156" y2="109.5"/>
					<line fill="none" stroke="#000000" stroke-miterlimit="10" x1="123.156" y1="109.5" x2="127.786" y2="113.43"/>
					<line fill="none" stroke="#000000" stroke-miterlimit="10" x1="127.786" y1="113.43" x2="126.296" y2="120.31"/>
					<line fill="none" stroke="#000000" stroke-miterlimit="10" x1="126.296" y1="120.31" x2="119.696" y2="122.06"/>
					<line fill="none" stroke="#000000" stroke-miterlimit="10" x1="119.696" y1="122.06" x2="114.517" y2="118.44"/>
					<line fill="none" stroke="#000000" stroke-miterlimit="10" x1="114.517" y1="118.44" x2="115.836" y2="111.38"/>
					<line fill="none" stroke="#000000" stroke-miterlimit="10" x1="121.586" y1="91.57" x2="129.056" y2="90.41"/>
					<line fill="none" stroke="#000000" stroke-miterlimit="10" x1="129.056" y1="90.41" x2="133.286" y2="94.77"/>
					<line fill="none" stroke="#000000" stroke-miterlimit="10" x1="133.286" y1="94.77" x2="131.146" y2="101.47"/>
					<line fill="none" stroke="#000000" stroke-miterlimit="10" x1="131.146" y1="101.47" x2="124.406" y2="102.58"/>
					<line fill="none" stroke="#000000" stroke-miterlimit="10" x1="124.406" y1="102.58" x2="119.596" y2="98.48"/>
					<line fill="none" stroke="#000000" stroke-miterlimit="10" x1="119.596" y1="98.48" x2="121.586" y2="91.57"/>
					<line fill="none" stroke="#000000" stroke-miterlimit="10" x1="114.056" y1="72.5" x2="121.336" y2="74.53"/>
					<line fill="none" stroke="#000000" stroke-miterlimit="10" x1="121.336" y1="74.53" x2="123.386" y2="80.25"/>
					<line fill="none" stroke="#000000" stroke-miterlimit="10" x1="123.386" y1="80.25" x2="118.666" y2="85.47"/>
					<line fill="none" stroke="#000000" stroke-miterlimit="10" x1="118.666" y1="85.47" x2="112.076" y2="83.69"/>
					<line fill="none" stroke="#000000" stroke-miterlimit="10" x1="112.076" y1="83.69" x2="109.386" y2="77.97"/>
					<line fill="none" stroke="#000000" stroke-miterlimit="10" x1="109.386" y1="77.97" x2="114.056" y2="72.5"/>
					<path fill="none" stroke="#000000" stroke-miterlimit="10" d="M167.656,99.42c0,37.11-30.09,67.2-67.21,67.2
						c-37.11,0-67.2-30.09-67.2-67.2c0-37.11,30.09-67.2,67.2-67.2C137.566,32.22,167.656,62.31,167.656,99.42z"/>
					<path fill="none" stroke="#000000" stroke-miterlimit="10" d="M190.486,99.17c0,49.64-40.25,89.88-89.89,89.88
						s-89.88-40.24-89.88-89.88c0-49.64,40.24-89.88,89.88-89.88S190.486,49.53,190.486,99.17z"/>
					<path fill="none" stroke="#000000" stroke-miterlimit="10" d="M117.026,99.17c0,9.2-7.46,16.66-16.66,16.66
						c-9.21,0-16.66-7.46-16.66-16.66s7.45-16.66,16.66-16.66C109.566,82.51,117.026,89.97,117.026,99.17z"/>
					<path fill="none" stroke="#000000" stroke-miterlimit="10" d="M112.356,99.56c0,6.7-5.431,12.12-12.13,12.12
						c-6.69,0-12.12-5.42-12.12-12.12c0-6.7,5.43-12.12,12.12-12.12C106.926,87.44,112.356,92.86,112.356,99.56z"/>
					<path fill="none" stroke="#000000" stroke-miterlimit="10" d="M150.696,99.84c0,27.67-22.43,50.09-50.1,50.09
						c-27.66,0-50.09-22.42-50.09-50.09s22.43-50.09,50.09-50.09C128.267,49.75,150.696,72.17,150.696,99.84z"/>
					<path fill="none" stroke="#000000" stroke-miterlimit="10" d="M149.106,99.65c0,26.64-21.59,48.24-48.24,48.24
						c-26.65,0-48.24-21.6-48.24-48.24c0-26.65,21.59-48.25,48.24-48.25C127.517,51.4,149.106,73,149.106,99.65z"/>
					<path fill="none" stroke="#000000" stroke-miterlimit="10" d="M142.506,99.82c0,22.99-18.64,41.64-41.63,41.64
						c-23,0-41.64-18.65-41.64-41.64c0-23,18.64-41.64,41.64-41.64C123.866,58.18,142.506,76.82,142.506,99.82z"/>
					<line fill="none" stroke="#000000" stroke-miterlimit="10" x1="87.686" y1="92.18" x2="99.676" y2="84.9"/>
					<line fill="none" stroke="#000000" stroke-miterlimit="10" x1="99.676" y1="84.9" x2="113.336" y2="92.18"/>
					<line fill="none" stroke="#000000" stroke-miterlimit="10" x1="113.336" y1="106.52" x2="99.676" y2="114.36"/>
					<line fill="none" stroke="#000000" stroke-miterlimit="10" x1="99.676" y1="114.36" x2="87.406" y2="106.52"/>
					<line fill="none" stroke="#000000" stroke-miterlimit="10" x1="87.406" y1="106.52" x2="87.406" y2="92.18"/>
					<line fill="none" stroke="#000000" stroke-miterlimit="10" x1="70.556" y1="97.45" x2="78.116" y2="97.5"/>
					<line fill="none" stroke="#000000" stroke-miterlimit="10" x1="78.116" y1="97.5" x2="81.586" y2="102.49"/>
					<line fill="none" stroke="#000000" stroke-miterlimit="10" x1="81.586" y1="102.49" x2="78.396" y2="108.76"/>
					<line fill="none" stroke="#000000" stroke-miterlimit="10" x1="78.396" y1="108.76" x2="71.556" y2="108.76"/>
					<line fill="none" stroke="#000000" stroke-miterlimit="10" x1="71.556" y1="108.76" x2="67.476" y2="103.94"/>
					<line fill="none" stroke="#000000" stroke-miterlimit="10" x1="67.476" y1="103.94" x2="70.556" y2="97.45"/>
					<line fill="none" stroke="#000000" stroke-miterlimit="10" x1="80.816" y1="114.57" x2="88.306" y2="115.55"/>
					<line fill="none" stroke="#000000" stroke-miterlimit="10" x1="88.306" y1="115.55" x2="91.156" y2="120.92"/>
					<line fill="none" stroke="#000000" stroke-miterlimit="10" x1="91.156" y1="120.92" x2="87.226" y2="126.75"/>
					<line fill="none" stroke="#000000" stroke-miterlimit="10" x1="87.226" y1="126.75" x2="80.436" y2="125.92"/>
					<line fill="none" stroke="#000000" stroke-miterlimit="10" x1="80.436" y1="125.92" x2="76.966" y2="120.65"/>
					<line fill="none" stroke="#000000" stroke-miterlimit="10" x1="76.966" y1="120.65" x2="80.816" y2="114.57"/>
					<line fill="none" stroke="#000000" stroke-miterlimit="10" x1="101.086" y1="119.27" x2="108.376" y2="121.28"/>
					<line fill="none" stroke="#000000" stroke-miterlimit="10" x1="108.376" y1="121.28" x2="110.437" y2="126.99"/>
					<line fill="none" stroke="#000000" stroke-miterlimit="10" x1="110.437" y1="126.99" x2="105.736" y2="132.22"/>
					<line fill="none" stroke="#000000" stroke-miterlimit="10" x1="105.736" y1="132.22" x2="99.136" y2="130.46"/>
					<line fill="none" stroke="#000000" stroke-miterlimit="10" x1="99.136" y1="130.46" x2="96.426" y2="124.75"/>
					<line fill="none" stroke="#000000" stroke-miterlimit="10" x1="96.426" y1="124.75" x2="101.086" y2="119.27"/>
					<line fill="none" stroke="#000000" stroke-miterlimit="10" x1="94.926" y1="67.83" x2="101.896" y2="70.76"/>
					<line fill="none" stroke="#000000" stroke-miterlimit="10" x1="101.896" y1="70.76" x2="103.206" y2="76.69"/>
					<line fill="none" stroke="#000000" stroke-miterlimit="10" x1="103.206" y1="76.69" x2="97.876" y2="81.28"/>
					<line fill="none" stroke="#000000" stroke-miterlimit="10" x1="97.876" y1="81.28" x2="91.556" y2="78.68"/>
					<line fill="none" stroke="#000000" stroke-miterlimit="10" x1="91.556" y1="78.68" x2="89.606" y2="72.67"/>
					<line fill="none" stroke="#000000" stroke-miterlimit="10" x1="89.606" y1="72.67" x2="94.926" y2="67.83"/>
					<line fill="none" stroke="#000000" stroke-miterlimit="10" x1="73.866" y1="80.55" x2="80.956" y2="77.94"/>
					<line fill="none" stroke="#000000" stroke-miterlimit="10" x1="80.956" y1="77.94" x2="85.966" y2="81.38"/>
					<line fill="none" stroke="#000000" stroke-miterlimit="10" x1="85.966" y1="81.38" x2="85.186" y2="88.37"/>
					<line fill="none" stroke="#000000" stroke-miterlimit="10" x1="85.186" y1="88.37" x2="78.786" y2="90.78"/>
					<line fill="none" stroke="#000000" stroke-miterlimit="10" x1="78.786" y1="90.78" x2="73.266" y2="87.71"/>
					<line fill="none" stroke="#000000" stroke-miterlimit="10" x1="73.266" y1="87.71" x2="73.866" y2="80.55"/>
					<path fill="none" stroke="#000000" stroke-miterlimit="10" d="M10.716,58.96c0,0,1.58,0,2.33-1.04c1.08-1.49,0.52-2.8,0.52-2.8
						s-1.09-1-1.93-1.5c-0.84-0.5-0.16-1.51-0.16-1.51l2.01-3.15c0,0,0.25-0.3,1.09-0.25c0.84,0.04,2.15,0.21,2.15,0.21
						s2.1-0.63,1.55-1.89c-0.55-1.26-0.97-2.02-0.97-2.02s-0.79-1.34-0.17-2.02c0.63-0.67,2.32-2.47,2.32-2.47s0.58-0.42,1.63,0
						c1.05,0.42,1.6,0.63,1.6,0.63s0.25,0.25,1.01-0.47c0.75-0.71,1.21-1.26,0.92-1.89s-1.09-1.68-1.09-1.68s-0.72-0.84-0.17-1.72
						c0.55-0.88,2.23-2.43,2.23-2.43s0.29-0.47,1.55,0c1.26,0.46,2.48,0.79,2.48,0.79s0.55,0.13,1.01-0.37
						c0.46-0.51,1.22-0.97,0.92-1.81c-0.29-0.84-0.88-1.97-0.88-1.97s-0.46-1.05,0.13-1.77c0.58-0.71,2.45-2.27,2.45-2.27
						s1.03-0.5,1.79,0c0.75,0.51,1.43,0.93,1.43,0.93s0.25,0.54,1.34-0.04c0,0,1.33-0.86,1.05-1.81c-0.28-0.95-0.82-3.02,0.04-3.58
						c0.86-0.56,2.26-1.91,2.26-1.91s0.95-0.5,2.01,0.28c1.07,0.79,1.91,1.23,2.52,1.01c0.62-0.22,1.79-0.78,1.74-2.13
						c-0.06-1.34-0.67-3.08,0.95-3.97c1.62-0.9,2.3-1.07,3.98,0c1.68,1.06,3.52,0.44,3.75-1.8c0.22-2.24-0.17-2.12,1.45-2.85
						c1.63-0.73,2.41-1.59,3.59-0.4c1.17,1.18,1.96,1.91,3.02,1.18c1.07-0.73,1.46-1.29,1.23-2.52c-0.22-1.23,1.52-2.41,2.69-2.57
						c1.18-0.17,1.91,0.27,2.63,0.67c0.73,0.39,1.29,1.34,2.02,1.34s2.02-0.11,2.52-0.89c0.5-0.79-0.06-2.75,1.4-3.25
						c1.46-0.51,2.35-1.07,3.42-0.51c1.06,0.56,1.51,2.24,2.35,2.52c0.84,0.28,1.68,0.06,2.24-0.67s1.12-3.25,1.96-3.25
						c0.84,0,3.47-0.5,4.09,0c0.61,0.51,2.07,2.91,2.68,2.91c0.62,0,1.57-0.39,2.3-1.96c0.73-1.56,1.4-1.62,2.13-1.67
						c0.73-0.06,2.35-0.51,3.36,0.89c1.01,1.4,1.57,2.47,2.24,2.47s1.62-1.35,2.521-2.13c0.89-0.79,1.34-1.35,2.57-1.35
						c1.239,0,3.14,0.28,3.359,0.9c0.23,0.61-0.16,1.4,0,2.46c0.17,1.07,0.45,1.51,1.351,1.74c0.89,0.22,1.51,0.78,2.29,0
						c0.789-0.78,1.35-1.62,2.13-2.46c0.79-0.85,1.569-1.41,2.75-1.13c1.17,0.28,2.8,0.56,2.97,1.52c0.16,0.95-0.68,3.3,0,4.03
						c0.67,0.73,1.62,1.18,2.35,1.12c0.721-0.06,2.011-2.91,3.69-2.97c1.68-0.05,2.41-0.06,3.59,0.73c1.17,0.78-0.34,2.97,0,3.69
						c0.33,0.73,2.01,2.36,3.47,1.41c1.45-0.96,2.63-2.99,4.37-2.25c1.73,0.73,2.63,1.07,2.63,1.74c0,0.67-1.229,2.35-0.949,3.03
						c0.279,0.67,0.949,1.9,2.289,1.9c1.351,0,2.58-3.14,3.921-2.74c1.35,0.39,3.029,1,2.52,2.29c-0.5,1.29-1.51,2.35-0.84,3.08
						c0.68,0.73,1.85,1.46,3.36,0.73c1.52-0.73,2.64-2.35,4.26-1.18c1.62,1.18,2.52,2.08,1.62,3.59
						c-0.891,1.51-0.891,2.18-0.051,2.97c0.841,0.78,1.96-0.62,3.86-1.01c1.91-0.39,2.86,0.95,3.14,1.79
						c0.28,0.84-0.729,1.57-0.84,2.41c-0.109,0.84-0.069,2.29,0.891,2.74c0.96,0.45,2.3,0.79,3.76,0.34
						c1.45-0.45,5.2-1.12,5.37,2.41c0.17,3.52-1.01,3.69,0.34,4.76c1.34,1.06,4.31-1.8,5.54,0.44c1.229,2.24,0.17,2.8,0,3.42
						s-1.12,2.13-0.28,3.42c0.84,1.28,2.86,0.95,3.87,1c1,0.06,3.24,1.46,2.29,4.43c-0.95,2.97-1.06,3.53-0.05,4.37
						c1,0.84,3.689-0.23,4.64,2.01c0.96,2.24-0.05,2.75-0.609,3.7c-0.561,0.95-1.011,3.02,1.01,3.75c2.01,0.73,3.58,0.78,3.8,3.47
						c0.229,2.69-1.96,3.08-1.9,4.37c0.061,1.29,2.351,2.3,2.351,2.3s2.3,0.78,2.189,3.19c-0.12,2.41-0.68,2.57-1.63,3.19
						c-0.95,0.62-1.51,1.68-1.06,2.97s3.81,1.34,3.81,3.7c0,2.35-1.35,3.24-2.35,3.41c-1.01,0.17-2.25,2.52-1.29,3.42
						c0.95,0.89,4.25,1.1,3.64,4.47c-0.62,3.37-3.14,1.58-4.2,2.75c-1.069,1.18-1.35,2.97-0.56,3.75c0.78,0.79,3.41,0.62,3.47,2.41
						c0.05,1.79-0.279,3.75-3.029,3.92c-2.74,0.17-1.681,2.75-1.341,3.08c0.341,0.34,3.36,1.399,3.141,4.42
						c-0.23,3.03-3.53,1.74-4.48,2.25c-0.96,0.5-1.85,2.85-0.68,4.08c1.18,1.24,3.42,1.07,3.2,3.979
						c-0.23,2.91-1.96,3.641-4.15,3.141c-2.18-0.51-1.729,1.34-0.97,2.24c0.75,0.89,3.55,1.56,3.16,3.579
						c-0.4,2.021-4.261,1.681-5.21,2.91c-0.95,1.23,1.17,3.92,1.229,4.71c0.061,0.78-0.78,3.84-2.689,3.54
						c-1.9-0.3-3.58-0.02-3.86,0.88c-0.28,0.9,1.62,3.7,1.229,4.761c-0.39,1.06-0.449,3.14-2.409,3.08c-1.96-0.061-4.091,0-4.091,0
						s-1.56,0.949-1.06,2.52s1.18,3.08,0.56,3.81c-0.619,0.73-1.29,1.9-2.239,1.9c-0.95,0-4.65-0.8-4.7-0.26
						c-0.061,0.54-0.9,0.71-0.51,2.84c0.39,2.13,0.449,4.25-1.73,4.7c-2.189,0.45-3.81-1.01-5.21,0s-1.07,1.79-0.95,2.3
						c0.11,0.5,1.061,1.12,0.61,2.18c-0.45,1.07-1.23,2.19-2.85,2.41c-1.631,0.22-1.29-1.01-3.141-1.06
						c-1.85-0.061-2.41,0.5-2.58,1.09c-0.16,0.59,0.51,2.27-0.16,3.33c-0.68,1.06-1.68,2.859-3.979,2.18
						c-2.3-0.67-2.351-1.229-3.25-1.229c-0.89,0-1.061-0.221-1.96,0.729c-0.891,0.95,0.06,2.41-1.34,3.36
						c-1.4,0.95-2.75,0.109-5.15,0c-2.41-0.11-2.92,0.39-3.25,1.569c-0.34,1.181-0.51,2.801-2.02,3.41
						c-1.511,0.62-3.36-1.34-4.48-1.39c-1.12-0.061-2.689,0.11-3.08,2.57c-0.39,2.47-3.53,2.739-4.479,2.02
						c-0.95-0.729-2.29-2.92-3.471-2.86c-1.18,0.061-2.35,2.131-3.14,3.7c-0.78,1.57-3.58,1.061-4.25,0.391s-1.68-2.521-2.35-2.521
						c-0.681,0-2.19,0-3.25,1.51c-1.07,1.511-1.74,2.301-2.521,2.351c-0.79,0.06-2.36,0.51-3.53-1.28c-1.18-1.8-1.35-2.08-2.35-1.96
						c-1.01,0.11-1.68,0.28-2.36,1.73c-0.67,1.46-3.97,1.46-4.7,0.5c-0.73-0.95-1.12-2.351-1.79-2.79
						c-0.67-0.45-1.35-1.011-2.69,0.27c-1.34,1.29-1.62,1.46-2.8,1.74c-1.18,0.28-2.52-0.73-2.97-1.79
						c-0.45-1.07-0.78-3.03-2.18-3.03c-1.4,0-2.58,2.69-3.87,2.64c-1.28-0.06-3.58-0.17-3.8-1.909c-0.23-1.73-0.51-3.24-1.96-3.53
						c-1.46-0.28-2.02,0.06-2.64,0.56c-0.61,0.511-1.96,1.351-3.02,0.79c-1.06-0.56-2.18-1.399-2.46-2.8
						c-0.28-1.399,0.05-2.24-1.63-2.52c-1.68-0.28-2.35,0-2.97,0.67c-0.61,0.67-1.84,1.229-2.96-0.11
						c-1.12-1.34-1.74-1.63-1.74-3.979c0-2.351-2.3-2.29-3.14-1.73c-0.84,0.56-2.12,1.79-3.58,0.5c-1.46-1.29-1.68-1.79-1.68-2.91
						s-0.17-3.7-2.35-3.92c-2.19-0.229-2.75,1.62-3.87,0.561c-1.12-1.07-1.8-1.681-1.63-3.53c0.18-1.851-0.33-3.7-2.01-3.86
						c-1.68-0.17-2.35,0.73-3.13,0.891c-0.79,0.17-3.31-1.45-3.14-3.471c0.17-2.01,1.01-3.859-0.67-4.31
						c-1.68-0.45-4.65-0.45-5.1-2.13c-0.45-1.681-0.11-2.91,0.4-4.09c0.5-1.171-0.51-2.801-2.36-2.74
						c-1.85,0.05-5.32-1.351-4.31-3.641c1.01-2.3,1.79-2.689,1.34-3.75c-0.44-1.069-1.11-1.46-3.02-1.569
						c-1.9-0.11-3.14-2.58-3.14-3.59c0-1,1.68-2.181,1.68-2.851s-0.67-3.47-2.74-3.25c-2.07,0.22-3.02-2.47-3.02-3.14
						s0.39-1.84,1.62-2.521c1.23-0.67,0.95-2.46,0.67-2.68c-0.28-0.229-0.33-1.24-2.74-1.4c-2.41-0.17-2.41-3.529-2.19-4.369
						c0.23-0.841,2.58-2.131,2.58-2.75c0-0.61,0.62-1.681-0.34-2.851c-0.95-1.18-3.02-1.85-3.08-3.53
						c-0.05-1.68-0.22-2.63,0.68-3.42c0.89-0.779,2.85-1.229,3.08-2.12c0.22-0.899,0.5-2.3,0-2.81c-0.51-0.5-2.97-1.41-3.2-3.25
						c-0.22-1.84-0.95-2.51,0.12-3.63c1.06-1.12,2.91-0.84,3.58-1.91c0.67-1.06,0.56-1.96,0.28-2.8c-0.28-0.84-4.17-0.11-3.89-3.02
						c0.28-2.92,0.36-3.09,1.76-3.54c1.4-0.45,2.33,0.05,2.67-1.01c0.34-1.07,0.82-3.51-0.3-4.35c-1.12-0.84-2.68-0.02-2.79-1.87
						s0.36-3.48,0.58-3.66c0.79-0.67,2.33-0.47,4.46-0.94c1.8-0.39,1.97-3.44,1.13-4.56s-3.24-2.39-3.01-3.67
						c0.22-1.29,0.51-4.01,1.97-4.63C9.116,58.97,10.716,58.96,10.716,58.96z"/>
				</g>
			</g>
		</g>
	</g>
</g>
</svg>
